# Blender 4.5.3 LTS
# www.blender.org
mtllib paredfrentesegundopiso.mtl
g Plane.026_Mesh
v 0.540260 6.654335 -3.823366
v 0.540248 6.654335 -3.709047
v 0.540260 8.654335 -3.823366
v 0.540248 8.654335 -3.709047
v -4.546099 6.668987 -3.823853
v -4.546112 6.668987 -3.709534
v -4.546099 8.668987 -3.823853
v -4.546112 8.668987 -3.709534
v -0.838308 7.396353 -3.823449
v -0.837203 8.193663 -3.823448
v -1.283701 8.193663 -3.823497
v -1.283701 7.386913 -3.823497
v -0.838319 7.396353 -3.718859
v -0.837214 8.193663 -3.718858
v -1.283713 8.193663 -3.718907
v -1.283713 7.386913 -3.718907
v -1.282304 8.189485 -3.709178
v -0.837333 8.188818 -3.709130
v -0.836513 7.402318 -3.709130
v -1.280762 7.401293 -3.709178
v -1.993432 8.247092 -3.823575
v -1.993432 7.386087 -3.823575
v -2.484053 7.384330 -3.823628
v -2.484053 8.255118 -3.823628
v -3.029865 8.267174 -3.823688
v -3.029156 7.368577 -3.823688
v -3.469679 7.373384 -3.822009
v -3.455297 8.259421 -3.823734
v -1.993440 8.247092 -3.747310
v -1.993440 7.386087 -3.747310
v -2.484061 7.384330 -3.747363
v -2.484061 8.255118 -3.747363
v -3.029875 8.267174 -3.747423
v -3.029163 7.368577 -3.747423
v -3.469687 7.373384 -3.745744
v -3.455306 8.259421 -3.747469
v -3.452166 8.254333 -3.709415
v -3.032433 8.255152 -3.709369
v -3.032980 7.368454 -3.709369
v -3.471561 7.369739 -3.709417
v -2.480440 8.234441 -3.709309
v -1.993829 8.216182 -3.709256
v -2.485745 7.387458 -3.709310
v -1.993721 7.385241 -3.709256
v -1.993868 8.260543 -3.709256
v -2.480305 8.255964 -3.709309
vn 1.0000 -0.0000 0.0001
vn -1.0000 -0.0000 -0.0001
vn 0.0029 1.0000 -0.0000
vn -0.0029 -1.0000 -0.0000
vn -0.0001 -0.0000 1.0000
vn 0.0001 -0.0001 -1.0000
vn 0.0001 -0.0000 -1.0000
vn -0.0212 0.9998 -0.0000
vn -0.0000 -1.0000 -0.0000
vn -1.0000 0.0014 -0.0001
vn 0.0001 0.0001 -1.0000
vn 0.0109 0.9999 -0.0000
vn -0.0289 0.9996 -0.0000
vn -0.0036 1.0000 -0.0000
vn 0.9999 -0.0162 0.0001
vn 0.0182 -0.9998 -0.0000
vn -1.0000 -0.0008 -0.0001
vn -0.0164 -0.9999 -0.0000
vn -0.0001 -0.0001 1.0000
vn 0.0017 -0.0000 -1.0000
vn -0.0006 -0.0019 -1.0000
vn -0.0001 0.0001 1.0000
vn -0.0037 0.0083 -1.0000
vt 0.940430 0.393346
vt 0.965788 0.783965
vt 0.940430 0.783965
vt 0.940429 0.393346
vt 0.965788 0.002724
vt 0.965788 0.393346
vt 0.915071 0.002724
vt 0.940429 0.996092
vt 0.915071 0.996093
vt 0.915071 0.002724
vt 0.889712 0.996147
vt 0.889712 0.002724
vt 0.285554 0.501954
vt 0.289941 0.298986
vt 0.446066 0.003849
vt 0.889712 0.996151
vt 0.786359 0.640171
vt 0.799224 0.405696
vt 0.801550 0.299086
vt 0.986831 0.870968
vt 0.963630 0.783965
vt 0.986831 0.783965
vt 0.940429 0.783965
vt 0.963630 0.871171
vt 0.940429 0.871171
vt 0.965788 0.291079
vt 0.988989 0.448645
vt 0.965788 0.448645
vt 0.965788 0.604369
vt 0.965788 0.448645
vt 0.106563 0.727357
vt 0.446066 0.997276
vt 0.002420 0.996151
vt 0.093251 0.298594
vt 0.091391 0.501433
vt 0.002420 0.002724
vt 0.606767 0.502008
vt 0.607403 0.640625
vt 0.446066 0.997276
vt 0.982705 0.291062
vt 0.966057 0.205050
vt 0.982974 0.205033
vt 0.446066 0.003849
vt 0.602220 0.299730
vt 0.606063 0.406185
vt 1.005906 0.459243
vt 0.988989 0.291079
vt 1.005906 0.291079
vt 0.982833 0.098547
vt 0.965915 0.098564
vt 0.982705 0.002724
vt 0.965788 0.002741
vt 0.982705 0.777432
vt 0.999623 0.604398
vt 0.999623 0.777461
vt 0.982974 0.002724
vt 0.999892 0.172797
vt 0.982974 0.172797
vt 0.986830 0.867057
vt 1.003748 0.783966
vt 1.003748 0.867057
vt 0.982705 0.779875
vt 0.965788 0.604369
vt 0.982705 0.604369
vt 0.982974 0.172797
vt 0.999892 0.268621
vt 0.982974 0.268621
vt 0.965788 0.393346
vt 0.940429 0.002724
vt 0.940429 0.002724
vt 0.915071 0.996147
vt 0.281026 0.727960
vt 0.281537 0.641194
vt 0.106699 0.640449
vt 0.101232 0.501466
vt 0.289936 0.213326
vt 0.097492 0.406416
vt 0.285376 0.405856
vt 0.786644 0.727377
vt 0.797757 0.501523
vt 0.603006 0.213689
vt 0.799558 0.215999
vt 0.963630 0.870968
vt 0.963630 0.783965
vt 0.988989 0.604369
vt 0.093701 0.216616
vt 0.092718 0.406430
vt 0.609782 0.727610
vt 0.965788 0.291079
vt 0.988989 0.459243
vt 0.982705 0.604369
vt 0.999892 0.002724
vt 0.986830 0.783965
vt 0.965788 0.779875
vt 0.999892 0.172797
s 0
g off
g Plane.026_Material.010
usemtl Material.010
f 3/1/1 2/2/1 1/3/1
f 6/4/2 7/5/2 5/6/2
f 4/7/3 7/8/3 8/9/3
f 2/10/4 5/11/4 1/12/4
f 44/13/5 39/14/5 6/15/5
f 3/16/6 11/17/6 7/12/6
f 7/12/7 24/18/7 25/19/7
f 12/20/8 13/21/8 9/22/8
f 10/23/9 15/24/9 11/25/9
f 11/26/1 16/27/1 12/28/1
f 10/27/10 13/29/10 14/30/10
f 18/31/5 2/32/5 4/33/5
f 38/34/5 45/35/5 8/36/5
f 22/37/11 12/38/11 1/39/11
f 27/40/12 34/41/12 26/42/12
f 5/43/7 26/44/7 23/45/7
f 22/46/2 29/47/2 21/48/2
f 23/49/13 34/41/13 31/50/13
f 22/51/14 31/50/14 30/52/14
f 27/53/15 36/54/15 35/55/15
f 24/56/1 31/57/1 23/58/1
f 28/59/16 33/60/16 36/61/16
f 26/62/17 33/63/17 25/64/17
f 21/65/18 32/66/18 24/67/18
f 3/1/1 4/68/1 2/2/1
f 6/4/2 8/69/2 7/5/2
f 4/7/3 3/70/3 7/8/3
f 2/10/4 6/71/4 5/11/4
f 6/15/19 2/32/19 19/72/19
f 20/73/5 17/74/5 42/75/5
f 6/15/5 19/72/5 20/73/5
f 39/14/5 40/76/5 6/15/5
f 41/77/5 38/34/5 39/14/5
f 43/78/5 41/77/5 39/14/5
f 20/73/5 42/75/5 44/13/5
f 44/13/5 43/78/5 39/14/5
f 6/15/5 20/73/5 44/13/5
f 3/16/6 10/79/6 11/17/6
f 7/12/7 11/17/7 21/80/7
f 24/18/7 23/45/7 26/44/7
f 7/12/7 21/80/7 24/18/7
f 27/81/20 5/43/20 7/12/20
f 28/82/21 27/81/21 7/12/21
f 24/18/7 26/44/7 25/19/7
f 25/19/7 28/82/7 7/12/7
f 12/20/8 16/83/8 13/21/8
f 10/23/9 14/84/9 15/24/9
f 11/26/1 15/47/1 16/27/1
f 10/27/10 9/85/10 13/29/10
f 4/33/22 8/36/22 17/74/22
f 18/31/5 19/72/5 2/32/5
f 4/33/22 17/74/22 18/31/22
f 8/36/5 6/15/5 40/76/5
f 8/36/5 40/76/5 37/86/5
f 45/35/5 42/75/5 17/74/5
f 38/34/5 41/77/5 46/87/5
f 45/35/5 17/74/5 8/36/5
f 38/34/22 46/87/22 45/35/22
f 8/36/5 37/86/5 38/34/5
f 1/39/7 5/43/7 23/45/7
f 22/37/7 21/80/7 11/17/7
f 1/39/11 23/45/11 22/37/11
f 10/79/7 3/16/7 1/39/7
f 9/88/7 10/79/7 1/39/7
f 22/37/7 11/17/7 12/38/7
f 12/38/11 9/88/11 1/39/11
f 27/40/12 35/89/12 34/41/12
f 5/43/23 27/81/23 26/44/23
f 22/46/2 30/90/2 29/47/2
f 23/49/13 26/42/13 34/41/13
f 22/51/14 23/49/14 31/50/14
f 27/53/15 28/91/15 36/54/15
f 24/56/1 32/92/1 31/57/1
f 28/59/16 25/93/16 33/60/16
f 26/62/17 34/94/17 33/63/17
f 21/65/18 29/95/18 32/66/18
