# Blender 4.5.3 LTS
# www.blender.org
mtllib Pata enmedio.mtl
o Pata_enmedio
v -0.201088 0.191175 -0.025675 0.2980 0.1922 0.1608
v -0.168214 0.222137 -0.001665 0.2980 0.1922 0.1608
v -0.228452 0.152867 -0.045660 0.2980 0.1922 0.1608
v -0.101813 0.191175 -0.161604 0.2980 0.1922 0.1608
v -0.068939 0.222137 -0.137594 0.2980 0.1922 0.1608
v -0.129177 0.152867 -0.181589 0.2980 0.1922 0.1608
v -0.097585 0.151685 -0.105214 0.2980 0.1922 0.1608
v -0.071502 0.176250 -0.086164 0.2980 0.1922 0.1608
v -0.119296 0.121290 -0.121071 0.2980 0.1922 0.1608
v -0.135802 0.086234 -0.133125 0.2980 0.1922 0.1608
v -0.146468 0.047864 -0.140915 0.2980 0.1922 0.1608
v -0.149980 0.108685 -0.196782 0.2980 0.1922 0.1608
v -0.163422 0.060325 -0.206600 0.2980 0.1922 0.1608
v -0.249255 0.108685 -0.060853 0.2980 0.1922 0.1608
v -0.262698 0.060325 -0.070671 0.2980 0.1961 0.1647
v -0.268263 0.009648 -0.074736 0.2980 0.1961 0.1647
v -0.265737 -0.041401 -0.072891 0.2980 0.1961 0.1647
v -0.168988 0.009648 -0.210665 0.2980 0.1922 0.1608
v -0.166462 -0.041401 -0.208820 0.2980 0.1922 0.1608
v -0.150883 0.007655 -0.144140 0.2980 0.1922 0.1608
v -0.148880 -0.032849 -0.142677 0.2980 0.1922 0.1608
v -0.140533 -0.072090 -0.136581 0.2980 0.1922 0.1608
v -0.126165 -0.108560 -0.126087 0.2980 0.1961 0.1647
v -0.155943 -0.090858 -0.201137 0.2980 0.1961 0.1647
v -0.137833 -0.136824 -0.187911 0.2980 0.1961 0.1647
v -0.255218 -0.090858 -0.065208 0.2980 0.1961 0.1647
v -0.237109 -0.136824 -0.051982 0.2980 0.1961 0.1647
v -0.212106 -0.177532 -0.033721 0.2980 0.1961 0.1647
v -0.181170 -0.211417 -0.011127 0.2980 0.1961 0.1647
v -0.112831 -0.177532 -0.169651 0.2980 0.1961 0.1647
v -0.081894 -0.211417 -0.147057 0.2980 0.1961 0.1647
v -0.106327 -0.140859 -0.111598 0.2980 0.1961 0.1647
v -0.081781 -0.167745 -0.093671 0.2980 0.1961 0.1647
v -0.053472 -0.188184 -0.072996 0.2980 0.1961 0.1647
v -0.022486 -0.201391 -0.050366 0.2980 0.1961 0.1647
v -0.046215 -0.237178 -0.120998 0.2980 0.1961 0.1647
v -0.007162 -0.253824 -0.092476 0.2980 0.1961 0.1647
v -0.145490 -0.237178 0.014931 0.2980 0.1961 0.1647
v -0.106437 -0.253824 0.043453 0.2980 0.1961 0.1647
v -0.065513 -0.260715 0.073342 0.2980 0.1961 0.1647
v -0.024288 -0.257588 0.103451 0.2980 0.1961 0.1647
v 0.033763 -0.260715 -0.062587 0.2980 0.1961 0.1647
v 0.074987 -0.257588 -0.032479 0.2980 0.1961 0.1647
v 0.009985 -0.206860 -0.026650 0.2980 0.1961 0.1647
v 0.042693 -0.204378 -0.002762 0.2980 0.1961 0.1647
v 0.074383 -0.194043 0.020382 0.2980 0.1922 0.1608
v 0.103835 -0.176250 0.041893 0.2980 0.1922 0.1608
v 0.114927 -0.244562 -0.003309 0.2980 0.1961 0.1647
v 0.152047 -0.222137 0.023802 0.2980 0.1961 0.1647
v 0.015651 -0.244562 0.132620 0.2941 0.1922 0.1608
v 0.052771 -0.222137 0.159731 0.2941 0.1922 0.1608
v 0.085645 -0.191176 0.183740 0.2941 0.1922 0.1608
v 0.113009 -0.152867 0.203725 0.2941 0.1922 0.1608
v 0.184920 -0.191176 0.047811 0.2980 0.1922 0.1608
v 0.212284 -0.152867 0.067796 0.2980 0.1922 0.1608
v 0.129918 -0.151685 0.060942 0.2980 0.1922 0.1608
v 0.151629 -0.121290 0.076799 0.2980 0.1922 0.1608
v 0.168135 -0.086234 0.088854 0.2980 0.1922 0.1608
v 0.178801 -0.047864 0.096644 0.2980 0.1922 0.1608
v 0.233088 -0.108685 0.082990 0.2980 0.1922 0.1608
v 0.246530 -0.060325 0.092807 0.2980 0.1922 0.1608
v 0.133812 -0.108685 0.218919 0.2941 0.1922 0.1608
v 0.147255 -0.060325 0.228736 0.2980 0.1922 0.1608
v 0.152820 -0.009648 0.232801 0.2980 0.1922 0.1608
v 0.150295 0.041401 0.230956 0.2980 0.1922 0.1608
v 0.252095 -0.009648 0.096872 0.2980 0.1922 0.1608
v 0.249570 0.041401 0.095027 0.2980 0.1922 0.1608
v 0.183217 -0.007655 0.099869 0.2980 0.1922 0.1608
v 0.181213 0.032849 0.098405 0.2980 0.1922 0.1608
v 0.172866 0.072090 0.092309 0.2980 0.1922 0.1608
v 0.158498 0.108560 0.081815 0.2980 0.1922 0.1608
v 0.239051 0.090858 0.087345 0.2980 0.1922 0.1608
v 0.220942 0.136824 0.074118 0.2980 0.1922 0.1608
v 0.139775 0.090858 0.223274 0.2980 0.1922 0.1608
v 0.121666 0.136824 0.210048 0.2980 0.1922 0.1608
v 0.096663 0.177532 0.191787 0.2980 0.1922 0.1608
v 0.065727 0.211417 0.169193 0.2980 0.1922 0.1608
v 0.195938 0.177532 0.055857 0.2980 0.1922 0.1608
v 0.165003 0.211417 0.033264 0.2980 0.1922 0.1608
v 0.138660 0.140859 0.067327 0.2980 0.1922 0.1608
v 0.114115 0.167745 0.049400 0.2980 0.1922 0.1608
v 0.085805 0.188184 0.028724 0.2980 0.1922 0.1608
v 0.054819 0.201391 0.006094 0.2980 0.1922 0.1608
v 0.129323 0.237177 0.007205 0.2980 0.1922 0.1608
v 0.090270 0.253823 -0.021317 0.2980 0.1922 0.1608
v 0.030048 0.237177 0.143134 0.2980 0.1922 0.1608
v -0.009006 0.253823 0.114612 0.2980 0.1922 0.1608
v -0.049930 0.260715 0.084723 0.2980 0.1922 0.1608
v -0.091155 0.257588 0.054615 0.2980 0.1922 0.1608
v 0.049345 0.260715 -0.051206 0.2980 0.1922 0.1608
v 0.008120 0.257588 -0.081315 0.2980 0.1922 0.1608
v 0.022348 0.206860 -0.017621 0.2980 0.1922 0.1608
v -0.010361 0.204378 -0.041510 0.2980 0.1922 0.1608
v -0.042050 0.194043 -0.064654 0.2980 0.1922 0.1608
v -0.031819 0.244562 -0.110484 0.2980 0.1922 0.1608
v -0.131094 0.244562 0.025445 0.2980 0.1922 0.1608
v 2.539535 1.372342 1.827071 0.2980 0.1922 0.1608
v 2.493533 1.372342 1.890057 0.2980 0.1922 0.1608
v 2.509731 1.448200 1.805305 0.2980 0.1922 0.1608
v 2.514071 1.257543 1.725815 0.3019 0.1961 0.1647
v 0.350641 -0.153887 0.070390 0.2980 0.1922 0.1608
v 2.389329 1.257543 1.896612 0.3137 0.2039 0.1686
v 2.435837 1.456668 1.668677 0.3098 0.2000 0.1686
v 2.437984 1.239075 1.670245 0.3019 0.1961 0.1647
v 0.382581 -0.084183 0.090733 0.2980 0.1922 0.1608
v 2.375552 1.390321 1.624648 0.2980 0.1922 0.1608
v 2.381507 1.270026 1.645781 0.2980 0.1922 0.1608
v 0.421053 0.035603 0.147984 0.2980 0.1922 0.1608
v 2.356654 1.330234 1.627630 0.2980 0.1922 0.1608
v 0.372458 0.161679 0.115085 0.2980 0.1922 0.1608
v 0.285672 0.193811 0.022939 0.2980 0.1922 0.1608
v 0.216574 0.187351 -0.027526 0.2980 0.1922 0.1608
v 0.002807 0.187351 0.265167 0.3019 0.1961 0.1647
v 0.013246 -0.026977 -0.001225 0.2980 0.1922 0.1608
v -0.019198 -0.026977 0.043199 0.2980 0.1922 0.1608
v 0.034679 -0.081526 0.014428 0.2980 0.1922 0.1608
v 0.002234 -0.081526 0.058852 0.2980 0.1922 0.1608
v 0.136875 -0.153887 0.363082 0.3059 0.2000 0.1686
v 2.311095 1.456668 1.839474 0.3568 0.2314 0.1922
v 0.067436 0.213252 0.266942 0.2941 0.1922 0.1608
v 0.228286 0.213253 0.046704 0.2980 0.1922 0.1608
v 2.236250 1.403811 1.756836 0.3137 0.2039 0.1725
v 0.187095 0.222305 0.276098 0.2941 0.1922 0.1647
v 0.273457 0.222304 0.157851 0.2980 0.1922 0.1608
v 2.252538 1.376859 1.723143 0.3019 0.1961 0.1608
v 2.302552 1.376859 1.654663 0.2941 0.1922 0.1608
v 2.329712 1.403811 1.628865 0.2941 0.1922 0.1608
v 2.463730 1.448200 1.868291 0.2980 0.1922 0.1608
v 2.315347 1.201654 1.802225 0.3176 0.2078 0.1686
v 2.405215 1.201654 1.679176 0.3019 0.1961 0.1647
v 0.222215 -0.122317 0.356256 0.2941 0.1922 0.1608
v 2.310106 1.192425 1.745968 0.3019 0.1961 0.1647
v 2.360058 1.192425 1.677574 0.2941 0.1922 0.1608
v 0.297508 -0.087363 0.321399 0.2980 0.1922 0.1608
v 0.385078 -0.087363 0.201497 0.2980 0.1922 0.1608
v 0.378275 -0.122317 0.142578 0.2980 0.1922 0.1608
v 0.385625 0.264109 0.528346 0.3098 0.2000 0.1686
v 0.559942 0.218122 0.649449 0.3098 0.2000 0.1686
v 0.799332 0.523821 0.810001 0.3176 0.2078 0.1725
v 1.153767 0.565841 1.054121 0.3137 0.2039 0.1725
v 0.470974 0.377157 0.585524 0.3098 0.2039 0.1686
vn 0.5898 -0.0000 -0.8076
vn 0.4889 -0.7959 0.3570
vn 0.6049 -0.6625 0.4418
vn -0.7660 0.4982 0.4063
vn -0.8386 0.4147 0.3533
vn -0.5898 -0.0000 0.8076
vn -0.8966 0.3153 0.3109
vn -0.9379 0.2037 0.2807
vn 0.7636 -0.3255 0.5577
vn 0.6976 -0.5037 0.5095
vn 0.8002 -0.1348 0.5844
vn 0.8060 0.0612 0.5887
vn -0.9645 -0.0383 0.2613
vn -0.9608 0.0843 0.2640
vn -0.9488 -0.1594 0.2728
vn -0.9143 -0.2744 0.2980
vn 0.7258 0.4385 0.5301
vn 0.7809 0.2547 0.5703
vn 0.6428 0.6054 0.4694
vn 0.5350 0.7490 0.3908
vn -0.7949 -0.4688 0.3852
vn -0.8623 -0.3789 0.3360
vn -0.7146 -0.5407 0.4439
vn -0.6245 -0.5918 0.5097
vn 0.2628 0.9456 0.1920
vn 0.4068 0.8639 0.2971
vn 0.1088 0.9909 0.0795
vn -0.0494 0.9981 -0.0361
vn -0.4291 -0.6247 0.6524
vn -0.5281 -0.6202 0.5801
vn -0.3312 -0.6053 0.7238
vn -0.2384 -0.5625 0.7917
vn -0.3541 0.8988 -0.2586
vn -0.2057 0.9670 -0.1502
vn -0.4889 0.7959 -0.3570
vn -0.6049 0.6625 -0.4418
vn -0.0814 -0.4147 0.9063
vn -0.1540 -0.4982 0.8533
vn -0.0233 -0.3153 0.9487
vn 0.0180 -0.2037 0.9789
vn -0.7636 0.3255 -0.5577
vn -0.6976 0.5037 -0.5095
vn -0.8002 0.1348 -0.5844
vn -0.8060 -0.0611 -0.5887
vn 0.0445 0.0383 0.9983
vn 0.0409 -0.0843 0.9956
vn 0.0288 0.1594 0.9868
vn -0.0057 0.2744 0.9616
vn -0.7258 -0.4385 -0.5301
vn -0.7809 -0.2547 -0.5703
vn -0.6428 -0.6054 -0.4694
vn -0.5350 -0.7490 -0.3908
vn -0.1251 0.4688 0.8744
vn -0.0577 0.3789 0.9236
vn -0.2054 0.5407 0.8157
vn -0.2955 0.5918 0.7500
vn -0.2628 -0.9456 -0.1920
vn -0.4068 -0.8639 -0.2971
vn -0.1088 -0.9909 -0.0795
vn 0.0494 -0.9981 0.0361
vn -0.4909 0.6247 0.6072
vn -0.3919 0.6202 0.6795
vn -0.5887 0.6053 0.5358
vn -0.6816 0.5625 0.4679
vn 0.3541 -0.8987 0.2586
vn 0.2057 -0.9670 0.1502
vn -0.6618 0.5731 -0.4833
vn -0.7262 -0.4375 -0.5304
vn -0.8655 -0.2094 0.4551
vn -0.6070 0.0118 0.7946
vn -0.3564 0.8898 -0.2850
vn -0.6035 -0.0031 0.7973
vn -0.4891 -0.2408 0.8384
vn -0.3236 0.1481 0.9345
vn -0.5999 -0.0173 0.7999
vn -0.6720 0.2311 0.7036
vn -0.7340 -0.0968 0.6722
vn 0.3450 -0.9090 0.2337
vn 0.6635 -0.5700 0.4846
vn -0.1182 0.2307 0.9658
vn 0.7262 0.4375 0.5304
vn 0.1967 0.9699 0.1436
vn 0.9047 0.2582 -0.3390
vn -0.3787 0.8893 -0.2565
vn 0.5682 -0.0128 -0.8228
vn 0.3264 -0.9082 0.2618
vn 0.0714 -0.9961 0.0521
vn 0.0078 -0.7869 0.6171
vn 0.3362 -0.9092 0.2455
vn 0.7836 -0.2419 0.5723
vn 0.5838 -0.7916 -0.1803
vn -0.0487 -0.9982 -0.0355
vn 0.1702 -0.2094 -0.9629
vn -0.1934 0.9709 -0.1413
vn -0.4725 0.8736 -0.1166
vn -0.3720 0.8876 -0.2717
vn -0.5295 0.7550 -0.3868
vn -0.1765 0.8485 -0.4989
vt 0.464151 0.561435
vt 0.472578 0.557945
vt 0.481524 0.556165
vt 0.490645 0.556165
vt 0.499590 0.557945
vt 0.508017 0.561435
vt 0.515601 0.566503
vt 0.522051 0.572952
vt 0.527118 0.580536
vt 0.530609 0.588963
vt 0.532388 0.597909
vt 0.532388 0.607030
vt 0.530609 0.615976
vt 0.527118 0.624403
vt 0.522051 0.631987
vt 0.515601 0.638436
vt 0.508017 0.643504
vt 0.499591 0.646994
vt 0.490645 0.648774
vt 0.481524 0.648774
vt 0.472578 0.646994
vt 0.464151 0.643504
vt 0.456567 0.638436
vt 0.450118 0.631987
vt 0.445050 0.624403
vt 0.441560 0.615976
vt 0.439780 0.607030
vt 0.439780 0.597909
vt 0.441559 0.588963
vt 0.450117 0.572952
vt 0.456567 0.566503
vt 0.738120 0.730934
vt 0.738120 0.721817
vt 0.768138 0.721817
vt 0.768139 0.730934
vt 0.738117 0.712930
vt 0.768135 0.712930
vt 0.789755 0.595589
vt 0.791414 0.602523
vt 0.779692 0.606205
vt 0.777602 0.597466
vt 0.789195 0.588384
vt 0.776896 0.588385
vt 0.299401 0.644028
vt 0.296632 0.637342
vt 0.295220 0.630244
vt 0.295221 0.623007
vt 0.296632 0.615909
vt 0.299401 0.609223
vt 0.303421 0.603206
vt 0.308538 0.598088
vt 0.314555 0.594068
vt 0.321240 0.591298
vt 0.328337 0.589886
vt 0.335572 0.589886
vt 0.342669 0.591298
vt 0.349354 0.594067
vt 0.355371 0.598088
vt 0.360487 0.603205
vt 0.364507 0.609223
vt 0.367276 0.615909
vt 0.368688 0.623007
vt 0.368688 0.630243
vt 0.367276 0.637341
vt 0.364507 0.644028
vt 0.360487 0.650045
vt 0.355370 0.655162
vt 0.349354 0.659183
vt 0.342669 0.661952
vt 0.335572 0.663364
vt 0.328336 0.663364
vt 0.321239 0.661953
vt 0.314554 0.659183
vt 0.308538 0.655163
vt 0.303421 0.650045
vt 0.789755 0.581185
vt 0.777601 0.579312
vt 0.791414 0.574269
vt 0.779692 0.570595
vt 0.720633 0.598060
vt 0.720639 0.589142
vt 0.750658 0.589140
vt 0.750652 0.598058
vt 0.720621 0.606432
vt 0.750639 0.606431
vt 0.720639 0.580022
vt 0.750658 0.580020
vt 0.720633 0.571050
vt 0.750652 0.571048
vt 0.776985 0.724523
vt 0.774261 0.718219
vt 0.785264 0.712930
vt 0.788697 0.720876
vt 0.794108 0.567901
vt 0.783088 0.562569
vt 0.778663 0.731399
vt 0.790811 0.729541
vt 0.779229 0.738581
vt 0.791525 0.738593
vt 0.617409 0.712931
vt 0.617464 0.721746
vt 0.587453 0.721746
vt 0.587399 0.712931
vt 0.720621 0.562571
vt 0.750639 0.562569
vt 0.617477 0.730848
vt 0.587466 0.730848
vt 0.617449 0.739889
vt 0.587439 0.739889
vt 0.776985 0.752760
vt 0.778663 0.745794
vt 0.790811 0.747684
vt 0.788697 0.756464
vt 0.774261 0.759212
vt 0.785264 0.764596
vt 0.350202 0.681603
vt 0.347071 0.675585
vt 0.357673 0.669487
vt 0.361619 0.677072
vt 0.212829 0.789860
vt 0.203794 0.789852
vt 0.203794 0.759834
vt 0.212829 0.759842
vt 0.617381 0.748521
vt 0.587370 0.748521
vt 0.194689 0.789856
vt 0.194689 0.759837
vt 0.185863 0.789870
vt 0.185863 0.759852
vt 0.353458 0.695387
vt 0.352358 0.688289
vt 0.364336 0.685499
vt 0.365722 0.694445
vt 0.353458 0.702624
vt 0.365722 0.703566
vt 0.352358 0.709722
vt 0.364337 0.712512
vt 0.525934 0.734220
vt 0.525950 0.743224
vt 0.495933 0.743224
vt 0.495917 0.734219
vt 0.525897 0.725672
vt 0.495880 0.725672
vt 0.525946 0.752339
vt 0.495930 0.752339
vt 0.525922 0.761215
vt 0.495906 0.761215
vt 0.347071 0.722424
vt 0.350202 0.716407
vt 0.361619 0.720938
vt 0.357673 0.728521
vt 0.102795 0.761791
vt 0.100135 0.755406
vt 0.111173 0.750065
vt 0.114525 0.758112
vt 0.104434 0.768718
vt 0.116590 0.766843
vt 0.155113 0.744971
vt 0.155113 0.754092
vt 0.125097 0.754092
vt 0.125097 0.744971
vt 0.155137 0.736024
vt 0.125121 0.736024
vt 0.155137 0.763037
vt 0.125121 0.763037
vt 0.155183 0.771464
vt 0.125167 0.771464
vt 0.104434 0.783122
vt 0.104987 0.775920
vt 0.117287 0.775920
vt 0.116590 0.784997
vt 0.102795 0.790046
vt 0.114526 0.793723
vt 0.100135 0.796426
vt 0.111173 0.801764
vt 0.185864 0.745050
vt 0.185864 0.735997
vt 0.215882 0.735997
vt 0.215883 0.745050
vt 0.185865 0.753712
vt 0.215883 0.753712
vt 0.185864 0.726901
vt 0.215883 0.726901
vt 0.185864 0.718111
vt 0.215883 0.718111
vt 0.763871 0.682408
vt 0.765994 0.689093
vt 0.754567 0.693623
vt 0.751890 0.685199
vt 0.769077 0.695108
vt 0.758452 0.701205
vt 0.762788 0.675311
vt 0.750526 0.676254
vt 0.762788 0.668074
vt 0.750526 0.667133
vt 0.258235 0.765862
vt 0.258236 0.756939
vt 0.288255 0.756939
vt 0.288254 0.765862
vt 0.258232 0.774244
vt 0.288251 0.774244
vt 0.258237 0.747819
vt 0.288255 0.747819
vt 0.258235 0.738851
vt 0.288254 0.738851
vt 0.765994 0.654288
vt 0.763870 0.660976
vt 0.751890 0.658186
vt 0.754567 0.649757
vt 0.769077 0.648268
vt 0.758452 0.642170
vt 0.794108 0.608920
vt 0.783088 0.614267
vt 0.738118 0.739930
vt 0.768137 0.739930
vt 0.738113 0.748460
vt 0.768132 0.748460
vt 0.725903 0.766637
vt 0.725903 0.780546
vt 0.701883 0.792358
vt 0.701883 0.754642
vt 0.055005 0.804600
vt 0.041095 0.804599
vt 0.041095 0.789669
vt 0.055005 0.789670
vt 0.347071 0.762200
vt 0.347071 0.747224
vt 0.371689 0.734644
vt 0.371689 0.773956
vt 0.581248 0.003061
vt 0.567462 0.550022
vt 0.563076 0.533472
vt 0.573011 0.014555
vt 0.519215 0.017286
vt 0.513577 0.003061
vt 0.811323 0.545060
vt 0.799619 0.003061
vt 0.807132 0.015764
vt 0.816013 0.522495
vt 0.843185 0.522495
vt 0.849040 0.545060
vt 0.532792 0.532875
vt 0.527974 0.550022
vt 0.553464 0.526284
vt 0.558917 0.034340
vt 0.541408 0.526046
vt 0.534130 0.034775
vt 0.350398 0.057257
vt 0.301760 0.057257
vt 0.295221 0.046844
vt 0.359859 0.046844
vt 0.348845 0.583764
vt 0.343422 0.562437
vt 0.324850 0.003061
vt 0.334661 0.003061
vt 0.543537 0.677503
vt 0.543536 0.687838
vt 0.495880 0.719550
vt 0.495880 0.654896
vt 0.747921 0.808936
vt 0.738113 0.808876
vt 0.738113 0.798423
vt 0.747921 0.798484
vt 0.055977 0.625549
vt 0.055977 0.635360
vt 0.003061 0.664995
vt 0.003061 0.600358
vt 0.439780 0.688031
vt 0.439780 0.677980
vt 0.489758 0.654896
vt 0.489758 0.717768
vt 0.854318 0.015764
vt 0.864253 0.003061
vt 0.090713 0.549973
vt 0.076861 0.003061
vt 0.096684 0.113969
vt 0.096408 0.256287
vt 0.130205 0.549972
vt 0.311126 0.583764
vt 0.315160 0.562437
vt 0.587370 0.792028
vt 0.587370 0.765914
vt 0.605233 0.754643
vt 0.605233 0.803281
vt 0.987414 0.019869
vt 0.983137 0.510839
vt 0.975957 0.514063
vt 0.975957 0.003061
vt 0.894208 0.488723
vt 0.879085 0.488723
vt 0.870376 0.003061
vt 0.896490 0.003061
vt 0.336033 0.801771
vt 0.336033 0.786648
vt 0.340948 0.780078
vt 0.340948 0.808339
vt 0.874839 0.994612
vt 0.870376 0.512841
vt 0.882041 0.494845
vt 0.882041 0.996939
vt 0.041095 0.771644
vt 0.041094 0.757734
vt 0.066105 0.745828
vt 0.066105 0.783547
vt 0.117895 0.571829
vt 0.102850 0.571829
vt 0.820503 0.516094
vt 0.835607 0.516094
vt 0.841368 0.025222
vt 0.814891 0.025222
vt 0.130735 0.108808
vt 0.120615 0.083525
vt 0.144538 0.003061
vt 0.123236 0.184012
s 0
usemtl New_Material.002
f 2/1/1 96/2/1 89/3/1 88/4/1 87/5/1 86/6/1 77/7/1 76/8/1 75/9/1 74/10/1 65/11/1 64/12/1 63/13/1 62/14/1 53/15/1 52/16/1 51/17/1 50/18/1 41/19/1 40/20/1 39/21/1 38/22/1 29/23/1 28/24/1 27/25/1 26/26/1 17/27/1 16/28/1 15/29/1 3/30/1 1/31/1
f 2/32/2 1/33/2 4/34/2 5/35/2
f 1/33/3 3/36/3 6/37/3 4/34/3
f 7/38/4 8/39/4 5/40/4 4/41/4
f 9/42/5 7/38/5 4/41/5 6/43/5
f 8/44/6 7/45/6 9/46/6 10/47/6 11/48/6 20/49/6 21/50/6 22/51/6 23/52/6 32/53/6 33/54/6 34/55/6 35/56/6 44/57/6 45/58/6 46/59/6 47/60/6 56/61/6 57/62/6 58/63/6 59/64/6 68/65/6 69/66/6 70/67/6 71/68/6 80/69/6 81/70/6 82/71/6 83/72/6 92/73/6 93/74/6 94/75/6
f 10/76/7 9/42/7 6/43/7 12/77/7
f 11/78/8 10/76/8 12/77/8 13/79/8
f 14/80/9 15/81/9 13/82/9 12/83/9
f 3/84/10 14/80/10 12/83/10 6/85/10
f 15/81/11 16/86/11 18/87/11 13/82/11
f 16/86/12 17/88/12 19/89/12 18/87/12
f 21/90/13 20/91/13 18/92/13 19/93/13
f 20/94/14 11/78/14 13/79/14 18/95/14
f 22/96/15 21/90/15 19/93/15 24/97/15
f 23/98/16 22/96/16 24/97/16 25/99/16
f 26/100/17 27/101/17 25/102/17 24/103/17
f 17/88/18 26/104/18 24/105/18 19/89/18
f 27/101/19 28/106/19 30/107/19 25/102/19
f 28/106/20 29/108/20 31/109/20 30/107/20
f 33/110/21 32/111/21 30/112/21 31/113/21
f 32/111/22 23/98/22 25/99/22 30/112/22
f 34/114/23 33/110/23 31/113/23 36/115/23
f 35/116/24 34/117/24 36/118/24 37/119/24
f 38/120/25 39/121/25 37/122/25 36/123/25
f 29/108/26 38/124/26 36/125/26 31/109/26
f 39/121/27 40/126/27 42/127/27 37/122/27
f 40/126/28 41/128/28 43/129/28 42/127/28
f 45/130/29 44/131/29 42/132/29 43/133/29
f 44/131/30 35/116/30 37/119/30 42/132/30
f 46/134/31 45/130/31 43/133/31 48/135/31
f 47/136/32 46/134/32 48/135/32 49/137/32
f 50/138/33 51/139/33 49/140/33 48/141/33
f 41/142/34 50/138/34 48/141/34 43/143/34
f 51/139/35 52/144/35 54/145/35 49/140/35
f 52/144/36 53/146/36 55/147/36 54/145/36
f 57/148/37 56/149/37 54/150/37 55/151/37
f 56/149/38 47/136/38 49/137/38 54/150/38
f 58/152/39 57/153/39 55/154/39 60/155/39
f 59/156/40 58/152/40 60/155/40 61/157/40
f 62/158/41 63/159/41 61/160/41 60/161/41
f 53/162/42 62/158/42 60/161/42 55/163/42
f 63/159/43 64/164/43 66/165/43 61/160/43
f 64/164/44 65/166/44 67/167/44 66/165/44
f 69/168/45 68/169/45 66/170/45 67/171/45
f 68/169/46 59/156/46 61/157/46 66/170/46
f 70/172/47 69/168/47 67/171/47 72/173/47
f 71/174/48 70/172/48 72/173/48 73/175/48
f 74/176/49 75/177/49 73/178/49 72/179/49
f 65/180/50 74/176/50 72/179/50 67/181/50
f 75/177/51 76/182/51 78/183/51 73/178/51
f 76/182/52 77/184/52 79/185/52 78/183/52
f 81/186/53 80/187/53 78/188/53 79/189/53
f 80/187/54 71/190/54 73/191/54 78/188/54
f 82/192/55 81/186/55 79/189/55 84/193/55
f 83/194/56 82/192/56 84/193/56 85/195/56
f 86/196/57 87/197/57 85/198/57 84/199/57
f 77/200/58 86/196/58 84/199/58 79/201/58
f 87/197/59 88/202/59 90/203/59 85/198/59
f 88/202/60 89/204/60 91/205/60 90/203/60
f 93/206/61 92/207/61 90/208/61 91/209/61
f 92/207/62 83/194/62 85/195/62 90/208/62
f 94/210/63 93/206/63 91/209/63 95/211/63
f 8/39/64 94/212/64 95/213/64 5/40/64
f 96/214/65 2/32/65 5/35/65 95/215/65
f 89/216/66 96/214/66 95/215/66 91/217/66
f 98/218/67 97/219/67 100/220/67 102/221/67
f 97/222/68 98/223/68 128/224/68 99/225/68
f 97/226/69 99/227/69 103/228/69 100/229/69
f 101/230/70 100/231/70 104/232/70 105/233/70 111/234/70 112/235/70
f 100/236/71 101/237/71 136/238/71 130/239/71 129/240/71 102/241/71
f 112/235/72 111/234/72 106/242/72 104/232/72 100/231/72 103/243/72
f 107/244/73 108/245/73 105/233/73 104/232/73
f 109/246/74 107/244/74 104/232/74 106/242/74
f 109/246/75 110/247/75 108/245/75 107/244/75
f 110/247/76 109/246/76 106/242/76 111/234/76
f 108/245/77 110/247/77 111/234/77 105/233/77
f 121/248/78 120/249/78 113/250/78 112/251/78 103/252/78 127/253/78
f 115/254/79 114/255/79 112/251/79 113/250/79
f 114/256/80 116/257/80 101/258/80 112/259/80
f 117/260/81 116/261/81 114/262/81 115/263/81
f 116/264/82 117/265/82 118/266/82 101/267/82
f 117/268/83 115/269/83 113/270/83 118/271/83
f 102/241/84 129/240/84 131/272/84 136/238/84 101/237/84 118/273/84
f 102/274/85 118/275/85 138/276/85 140/277/85 119/278/85
f 103/252/86 119/279/86 113/250/86 120/249/86 122/280/86 127/253/86
f 124/281/87 123/282/87 120/283/87 121/284/87
f 123/285/88 125/286/88 122/287/88 120/288/88
f 126/289/89 125/290/89 123/291/89 124/292/89
f 125/293/90 126/294/90 127/295/90 122/296/90
f 126/297/91 124/298/91 121/299/91 127/300/91
f 99/301/92 128/302/92 119/303/92 103/304/92
f 128/305/93 98/306/93 102/274/93 119/278/93
f 133/307/94 132/308/94 129/240/94 130/239/94
f 132/308/95 134/309/95 131/272/95 129/240/95
f 134/309/96 132/308/96 133/307/96 135/310/96
f 134/309/97 135/310/97 136/238/97 131/272/97
f 135/310/98 133/307/98 130/239/98 136/238/98
f 119/278/85 141/311/85 137/312/85 138/276/85 118/275/85 113/313/85
f 141/311/85 119/278/85 140/277/85 139/314/85 138/276/85
